<svg width="300" height="300" viewBox="0 0 300 300" fill="none" xmlns="http://www.w3.org/2000/svg">
<path d="M203.108 2.73177C202.297 7.64526 198.041 19.7243 195.203 25.1154C185.811 42.7221 168.986 56.2342 150.541 61.0795C147.973 61.7619 145.946 62.4443 145.946 62.6491C145.946 62.8538 147.973 63.5362 150.541 64.2186C168.986 69.0639 185.811 82.576 195.203 100.183C198.041 105.574 202.297 117.653 203.108 122.498C203.716 126.32 204.459 126.183 205.068 122.293C206.351 113.49 212.5 99.432 218.784 90.9016C228.243 78.072 242.703 68.1767 257.905 64.1504C260.27 63.5362 262.162 62.8538 262.162 62.6491C262.162 62.4443 260.135 61.6937 257.703 61.0795C237.905 55.7565 220.743 41.4255 211.824 22.8634C208.514 15.9026 205.743 7.84999 205.068 3.00474C204.459 -0.885109 203.716 -1.02159 203.108 2.73177Z" fill="url(#paint0_linear_1_3)"/>
<path d="M105.541 49.137C103.378 62.922 98.6486 77.5943 91.554 92.3347C80.1351 116.152 62.5676 136.147 41.8243 148.908C30.9459 155.528 14.0541 162.761 3.91892 165.013C1.75676 165.491 0 166.105 0 166.378C0 166.651 1.75676 167.265 3.91892 167.743C15.0676 170.268 34.1216 178.662 45 185.896C55.6081 192.925 65.9459 202.479 74.3243 212.784C89.3919 231.346 101.757 259.393 105.541 283.62C106.014 286.691 106.554 289.216 106.824 289.216C107.027 289.216 107.432 287.373 107.703 285.189C108.378 279.32 112.297 263.966 115.203 256.118C124.662 230.254 141.081 206.71 159.797 192.242C174.122 181.187 191.419 172.52 207.905 168.221C211.014 167.402 213.514 166.515 213.514 166.31C213.514 166.105 211.757 165.491 209.662 165.013C193.919 161.533 172.365 150.682 158.311 139.354C140.068 124.614 124.392 101.821 115.203 76.6389C112.297 68.7909 108.378 53.4363 107.703 47.5674C107.432 45.3836 107.027 43.5411 106.824 43.5411C106.554 43.5411 106.014 46.066 105.541 49.137Z" fill="url(#paint1_linear_1_3)"/>
<path d="M240.946 177.434C240.135 182.347 235.878 194.426 233.041 199.817C223.649 217.424 206.824 230.936 188.378 235.781C185.811 236.464 183.784 237.146 183.784 237.351C183.784 237.556 185.811 238.238 188.378 238.921C206.824 243.766 223.649 257.278 233.041 274.885C235.878 280.276 240.135 292.355 240.946 297.268C241.554 301.022 242.297 300.885 242.905 296.995C244.189 288.192 250.338 274.134 256.622 265.604C266.081 252.774 280.541 242.879 295.743 238.852C298.108 238.238 300 237.556 300 237.351C300 237.146 297.973 236.396 295.541 235.781C275.743 230.458 258.581 216.127 249.662 197.565C246.351 190.605 243.581 182.552 242.905 177.707C242.297 173.817 241.554 173.68 240.946 177.434Z" fill="url(#paint2_linear_1_3)"/>
<defs>
<linearGradient id="paint0_linear_1_3" x1="145.946" y1="-12403.6" x2="12639.5" y2="-814.742" gradientUnits="userSpaceOnUse">
<stop stop-color="#00B3FF"/>
<stop offset="1" stop-color="#0E46A3"/>
</linearGradient>
<linearGradient id="paint1_linear_1_3" x1="0" y1="-24278.2" x2="24327.6" y2="-3135.34" gradientUnits="userSpaceOnUse">
<stop stop-color="#00B3FF"/>
<stop offset="1" stop-color="#0E46A3"/>
</linearGradient>
<linearGradient id="paint2_linear_1_3" x1="183.784" y1="-12229.8" x2="12678.2" y2="-641.012" gradientUnits="userSpaceOnUse">
<stop stop-color="#00B3FF"/>
<stop offset="1" stop-color="#0E46A3"/>
</linearGradient>
</defs>
</svg>
